<?xml version="1.0" ?><!DOCTYPE svg  PUBLIC '-//W3C//DTD SVG 1.1//EN'  'http://www.w3.org/Graphics/SVG/1.1/DTD/svg11.dtd'><svg height="6.82666in" style="shape-rendering:geometricPrecision; text-rendering:geometricPrecision; image-rendering:optimizeQuality; fill-rule:evenodd; clip-rule:evenodd" viewBox="0 0 6.82666 6.82666" width="6.82666in" xml:space="preserve" xmlns="http://www.w3.org/2000/svg" xmlns:xlink="http://www.w3.org/1999/xlink"><defs><style type="text/css">
   <![CDATA[
    .fil5 {fill:none}
    .fil0 {fill:#011D38}
    .fil1 {fill:#013668}
    .fil3 {fill:#DD2C00}
    .fil2 {fill:#FAC23C}
    .fil4 {fill:#FFFFFE}
   ]]>
  </style></defs><g id="Layer_x0020_1"><g id="_398966608"><path class="fil0" d="M1.25706 1.78925l4.31254 0c0.222059,0 0.403732,0.181669 0.403732,0.403728l0 2.44071c0,0.222059 -0.181673,0.403728 -0.403732,0.403728l-4.31254 0c-0.222051,0 -0.403724,-0.181669 -0.403724,-0.403728l0 -2.44071c0,-0.222059 0.181673,-0.403728 0.403724,-0.403728z" id="_398970496"/><path class="fil1" d="M1.25706 1.86924c-0.177898,0 -0.323728,0.145835 -0.323728,0.323732l0 2.44071c0,0.177898 0.145831,0.323732 0.323728,0.323732l4.31254 0c0.177902,0 0.323736,-0.145827 0.323736,-0.323732l0 -2.44071c0,-0.177906 -0.145835,-0.323732 -0.323736,-0.323732l-4.31254 0z" id="_398969920"/><circle class="fil2" cx="4.21874" cy="3.41333" id="_398970424" r="1.19845"/><path class="fil2" d="M3.41337 2.5259c0.0221969,0.0201614 0.043626,0.0411496 0.0642598,0.0629016l-0.128606 0c0.0206339,-0.021752 0.042063,-0.0427402 0.0642598,-0.0629016l8.66142e-005 0z" id="_398969608"/><circle class="fil3" cx="2.60792" cy="3.41333" id="_398969560" r="1.19845"/><path class="fil2" d="M3.53805 2.65756c0.0166142,0.0204213 0.0325748,0.0413976 0.0478386,0.0629016l-0.34511 0c0.0152638,-0.0215039 0.0312244,-0.0424803 0.0478386,-0.0629016l0.249433 0z" id="_398969320"/><path class="fil2" d="M3.6312 2.78921c0.0125748,0.0205709 0.0245512,0.0415394 0.0358937,0.0629016l-0.507528 0c0.0113425,-0.0213622 0.0233189,-0.0423307 0.0358937,-0.0629016l0.43574 0z" id="_398969536"/><path class="fil2" d="M3.70082 2.92086c0.00932283,0.0206614 0.0180669,0.0416378 0.0262323,0.0629016l-0.627449 0c0.00816535,-0.0212638 0.0169094,-0.0422402 0.0262323,-0.0629016l0.574984 0z" id="_398968384"/><path class="fil2" d="M3.75109 3.05252c0.00653543,0.0207283 0.0125157,0.0417047 0.017937,0.0629016l-0.711386 0c0.00542126,-0.0211969 0.0114016,-0.0421732 0.017937,-0.0629016l0.675512 0z" id="_398968864"/><path class="fil2" d="M3.78446 3.18417c0.00402362,0.0207835 0.00751181,0.041752 0.0104488,0.0629016l-0.76315 0c0.00293701,-0.0211496 0.0064252,-0.0421181 0.0104488,-0.0629016l0.742252 0z" id="_398968504"/><path class="fil2" d="M3.80246 3.31582c0.00167717,0.0208228 0.00281102,0.0417953 0.00340945,0.0629016l-0.785071 0c0.000598425,-0.0211063 0.00173228,-0.0420787 0.00340945,-0.0629016l0.778252 0z" id="_398968168"/><path class="fil2" d="M3.80588 3.44748c-0.000594488,0.0211063 -0.00172441,0.0420827 -0.0033937,0.0629016l-0.778315 0c-0.00166929,-0.0208189 -0.00279921,-0.0417953 -0.0033937,-0.0629016l0.785102 0z" id="_398967808"/><path class="fil2" d="M3.79497 3.57913c-0.00292913,0.0211457 -0.00640945,0.0421181 -0.0104252,0.0629016l-0.742433 0c-0.00401575,-0.0207835 -0.00749606,-0.0417559 -0.0104252,-0.0629016l0.763283 0z" id="_398968240"/><path class="fil2" d="M3.76914 3.71078c-0.00541339,0.0211969 -0.0113819,0.0421732 -0.0179094,0.0629016l-0.675795 0c-0.00652756,-0.0207283 -0.0124961,-0.0417047 -0.0179094,-0.0629016l0.711614 0z" id="_398967640"/><path class="fil2" d="M3.72723 3.84244c-0.00815748,0.0212638 -0.0168858,0.0422402 -0.0262008,0.0629016l-0.575394 0c-0.00931496,-0.0206614 -0.0180433,-0.0416378 -0.0262008,-0.0629016l0.627795 0z" id="_398966992"/><path class="fil2" d="M3.66734 3.97409c-0.0113307,0.0213583 -0.0232992,0.0423307 -0.0358583,0.0629016l-0.436299 0c-0.0125591,-0.0205709 -0.0245276,-0.0415433 -0.0358583,-0.0629016l0.508016 0z" id="_398967472"/><path class="fil2" d="M3.58621 4.10574c-0.015248,0.0215 -0.031185,0.0424803 -0.0477835,0.0629016l-0.250189 0c-0.0165984,-0.0204213 -0.0325354,-0.0414016 -0.0477835,-0.0629016l0.345756 0z" id="_398967112"/><path class="fil4" d="M5.18241 3.61681l0 -0.406957 -0.114244 0 0 0.140583c-0.0110827,-0.0118465 -0.0237795,-0.0206535 -0.0381772,-0.026626 -0.0142992,-0.00587008 -0.0302165,-0.00880315 -0.0478307,-0.00880315 -0.0360984,0 -0.0657441,0.0129764 -0.0891417,0.0389331 -0.0234055,0.0259567 -0.0351496,0.0633701 -0.0351496,0.112343 0,0.0436732 0.0106102,0.0808976 0.0317362,0.1115 0.0212205,0.0305984 0.0519134,0.0458504 0.0919803,0.0458504 0.0199882,0 0.0381772,-0.00426772 0.054378,-0.0127913 0.0122205,-0.00653543 0.0257638,-0.0191339 0.0405433,-0.0377047l0 0.0436732 0.105906 0zm-0.128075 -0.200543c0.00975984,0.0113701 0.014685,0.0287047 0.014685,0.0519134 0,0.0256732 -0.00483071,0.0441457 -0.0143976,0.0555118 -0.00966142,0.0112717 -0.0216024,0.0169567 -0.0359961,0.0169567 -0.0134528,0 -0.0248228,-0.00559055 -0.0339173,-0.0168622 -0.00918898,-0.0112756 -0.0137323,-0.0288937 -0.0137323,-0.0530472 0,-0.0258622 0.00444882,-0.0442441 0.0132598,-0.0551339 0.00890551,-0.0109882 0.0198937,-0.0164843 0.0329685,-0.0164843 0.0149685,0 0.027374,0.0056811 0.0371299,0.0171457z" id="_398966896"/><path class="fil4" d="M4.71264 3.36994l0 -0.048122 -0.105906 0 0 0.294984 0.113673 0 0 -0.0990866c0,-0.0472717 0.00587402,-0.0795748 0.0175236,-0.096811 0.00814961,-0.0122244 0.0197047,-0.0183819 0.0344843,-0.0183819 0.00776378,0 0.018378,0.00274803 0.0317323,0.00833465l0.0350512 -0.0802283c-0.0197992,-0.0104213 -0.0380827,-0.0156299 -0.0548543,-0.0156299 -0.0159094,0 -0.0292677,0.00387795 -0.0401575,0.0117441 -0.0107992,0.00785827 -0.0213189,0.0222559 -0.0315472,0.0431969z" id="_398966776"/><path class="fil4" d="M4.53796 3.42365c0,-0.0139252 -0.00274409,-0.0285118 -0.00833465,-0.0437598 -0.00549606,-0.0152598 -0.0130709,-0.0270945 -0.0227402,-0.0354331 -0.0136378,-0.0120315 -0.0307835,-0.0199843 -0.051248,-0.0237756 -0.0205551,-0.00379134 -0.0476457,-0.0056811 -0.0814606,-0.0056811 -0.0211299,0 -0.0407402,0.0016063 -0.0588307,0.00473228 -0.0180945,0.00312598 -0.0323031,0.0075748 -0.0426299,0.0133583 -0.0144921,0.00795669 -0.0254843,0.0173386 -0.0331575,0.0282283 -0.00766929,0.0107992 -0.0135433,0.0256693 -0.0176181,0.0446181l0.107992 0.0113661c0.00445669,-0.0128858 0.0102323,-0.0215984 0.0174331,-0.0263346 0.00928346,-0.00596457 0.0231102,-0.00890157 0.0415866,-0.00890157 0.0143976,0 0.024437,0.00274409 0.030122,0.00833465 0.00577953,0.00558661 0.00862205,0.015248 0.00862205,0.0291772 -0.0140236,0.00558661 -0.027378,0.0100394 -0.0399764,0.0134488 -0.0125984,0.00350787 -0.0400748,0.00947244 -0.0824173,0.018 -0.0353307,0.00700787 -0.0595827,0.017811 -0.072752,0.0323031 -0.0131654,0.0144921 -0.0197008,0.0329646 -0.0197008,0.0554173 0,0.0238701 0.00909055,0.0440512 0.027374,0.0603386 0.018189,0.0163937 0.0449055,0.0245394 0.0800472,0.0245394 0.0264291,0 0.0496417,-0.00407087 0.0696299,-0.0122205 0.0146811,-0.00606299 0.0293661,-0.0162008 0.0441417,-0.0304094 0.00132283,0.00843307 0.00264961,0.0145906 0.00388583,0.0185669 0.00132283,0.00398031 0.00406693,0.00966535 0.00833465,0.0172402l0.105815 0c-0.00587795,-0.0122205 -0.00976378,-0.0222598 -0.0114646,-0.030122 -0.00179921,-0.0078622 -0.00265354,-0.0187598 -0.00265354,-0.0326811l0 -0.13035zm-0.158957 0.0676378c0.0169567,-0.00435827 0.0331535,-0.00928346 0.0486929,-0.0148701l0 0.018185c0,0.0142126 -0.00227559,0.0257677 -0.00682677,0.0346693 -0.00454331,0.00890945 -0.0122165,0.0163898 -0.0230157,0.0225472 -0.0108937,0.00615748 -0.0226378,0.0092874 -0.0352362,0.0092874 -0.0120354,0 -0.0211299,-0.00284646 -0.027378,-0.00852756 -0.00615748,-0.00568504 -0.00928346,-0.0130709 -0.00928346,-0.0220709 0,-0.0078622 0.00312598,-0.014878 0.00947244,-0.0210354 0.00605906,-0.00596457 0.0206496,-0.0120276 0.0435748,-0.018185z" id="_398967256"/><path class="fil4" d="M4.16918 3.32969c-0.0142087,-0.0430079 -0.0360945,-0.0748386 -0.0653622,-0.0955866 -0.0293661,-0.0207402 -0.0697244,-0.0310669 -0.120972,-0.0310669 -0.0655512,0 -0.116232,0.0180906 -0.152134,0.0541811 -0.0358071,0.036189 -0.0537126,0.0879094 -0.0537126,0.155169 0,0.0503937 0.0102283,0.0918858 0.0305945,0.124189 0.0203661,0.0323031 0.0445236,0.0549449 0.072563,0.0678307 0.0281378,0.0127835 0.0642244,0.0192283 0.108563,0.0192283 0.0364724,0 0.0664961,-0.00530709 0.0900866,-0.0158228 0.0236811,-0.0105157 0.0433858,-0.0261457 0.0593031,-0.0468898 0.0160079,-0.0206496 0.0276575,-0.0465118 0.0350472,-0.0773937l-0.110264 -0.033252c-0.00559055,0.0256732 -0.0144921,0.0452835 -0.026811,0.0587323 -0.012315,0.0135472 -0.0305,0.0202717 -0.054563,0.0202717 -0.0248189,0 -0.0440512,-0.00833465 -0.0577835,-0.0250079 -0.0137362,-0.0167677 -0.0205591,-0.0475551 -0.0205591,-0.0926457 0,-0.0362835 0.00577953,-0.0629961 0.0172441,-0.0799488 0.0151535,-0.0228268 0.0370354,-0.0342913 0.0656457,-0.0342913 0.0125984,0 0.0239646,0.00255512 0.0342008,0.00776378 0.0101339,0.00511811 0.018752,0.0125079 0.0258583,0.0220709 0.00426378,0.00568898 0.00833858,0.014685 0.0122205,0.027l0.110835 -0.0245315z" id="_398966464"/><path class="fil4" d="M3.73067 3.41086l0.0350512 -0.0802283c-0.0197953,-0.0104213 -0.0380827,-0.0156299 -0.0548465,-0.0156299 -0.0159173,0 -0.0292756,0.00387795 -0.0401654,0.0117441 -0.0107992,0.00785827 -0.021311,0.0222559 -0.0315433,0.0431969l0 -0.048122 -0.105909 0 0 0.294984 0.113673 0 0 -0.0990866c0,-0.0472717 0.00587402,-0.0795748 0.0175236,-0.096811 0.00814961,-0.0122244 0.0197087,-0.0183819 0.0344843,-0.0183819 0.00776772,0 0.018378,0.00274803 0.0317323,0.00833465z" id="_398966176"/><path class="fil4" d="M3.4804 3.48466c0,-0.0389331 -0.00634646,-0.0705748 -0.0191339,-0.0948228 -0.0127874,-0.0243504 -0.0314488,-0.0428189 -0.0558858,-0.0556102 -0.0244449,-0.0127835 -0.0576929,-0.0192244 -0.0999409,-0.0192244 -0.0520079,0 -0.0928346,0.0142992 -0.122299,0.042815 -0.0295551,0.0285157 -0.0443307,0.0659331 -0.0443307,0.112067 0,0.0323976 0.00738976,0.060626 0.0220709,0.084685 0.0147756,0.0239646 0.0333465,0.0414882 0.0556969,0.0524843 0.0224528,0.0110787 0.0531457,0.0165748 0.0922717,0.0165748 0.0449961,0 0.0795669,-0.00644488 0.10363,-0.0193268 0.024063,-0.0127874 0.0446181,-0.0341024 0.0616732,-0.0636575l-0.111406 -0.0102323c-0.00700787,0.00881102 -0.0136378,0.0149685 -0.0197992,0.0184724 -0.00994488,0.00549606 -0.0205551,0.00824016 -0.0317323,0.00824016 -0.0176181,0 -0.0319252,-0.00634252 -0.042815,-0.0191299 -0.00786614,-0.00890551 -0.0126929,-0.0224567 -0.0147795,-0.0405472l0.22678 0 0 -0.0127874zm-0.132524 -0.0883819c0.00956693,0.00947244 0.0155394,0.0251969 0.0177165,0.0471732l-0.111685 0c0.0018937,-0.0177165 0.00624803,-0.0309764 0.0130669,-0.0398819 0.0108031,-0.0143031 0.0252008,-0.0215 0.0432008,-0.0215 0.0156299,0 0.0281378,0.00473228 0.0377008,0.0142087z" id="_398966128"/><path class="fil4" d="M3.09911 3.4048l0 -0.0829764 -0.0619528 0 0 -0.111972 -0.11311 0.0578819 0 0.0540906 -0.0414921 0 0 0.0829764 0.0414921 0 0 0.103736c0,0.0328701 0.00322441,0.0567402 0.00956693,0.0714252 0.00644094,0.0146811 0.0162992,0.0256654 0.0295591,0.0328661 0.0133583,0.00720472 0.0341024,0.0108031 0.0622402,0.0108031 0.024248,0 0.0502992,-0.0030315 0.0782402,-0.00918898l-0.00833465 -0.0781535c-0.015063,0.00483071 -0.0267126,0.00720079 -0.0350472,0.00720079 -0.00928346,0 -0.0158189,-0.00312598 -0.0195157,-0.00937795 -0.00236614,-0.0040748 -0.00359843,-0.0124134 -0.00359843,-0.0249134l0 -0.104398 0.0619528 0z" id="_398966056"/><polygon class="fil4" id="_398966536" points="2.1018,3.61681 2.1018,3.20985 1.93668,3.20985 1.87331,3.45747 1.81013,3.20985 1.64426,3.20985 1.64426,3.61681 1.74713,3.61681 1.74713,3.30657 1.82632,3.61681 1.91954,3.61681 1.99892,3.30657 1.99892,3.61681 "/><path class="fil4" d="M2.16991 3.40594l0.107996 0.0113661c0.00445276,-0.0128858 0.0102323,-0.0215984 0.0174291,-0.0263346 0.0092874,-0.00596457 0.0231142,-0.00890157 0.0415866,-0.00890157 0.0144016,0 0.0244409,0.00274409 0.030126,0.00833465 0.00577559,0.00558661 0.00862205,0.015248 0.00862205,0.0291772 -0.0140236,0.00558661 -0.027378,0.0100394 -0.0399764,0.0134488 -0.0126024,0.00350787 -0.0400748,0.00947244 -0.0824173,0.018 -0.0353346,0.00700787 -0.0595866,0.017811 -0.072752,0.0323031 -0.0131654,0.0144921 -0.0197047,0.0329646 -0.0197047,0.0554173 0,0.0238701 0.00909055,0.0440512 0.027378,0.0603386 0.018189,0.0163937 0.0449016,0.0245394 0.0800472,0.0245394 0.0264291,0 0.0496378,-0.00407087 0.0696299,-0.0122205 0.0146811,-0.00606299 0.0293622,-0.0162008 0.0441417,-0.0304094 0.00132283,0.00843307 0.00264961,0.0145906 0.00388583,0.0185669 0.00132283,0.00398031 0.00406693,0.00966535 0.00833465,0.0172402l0.105811 0c-0.00587402,-0.0122205 -0.00975984,-0.0222598 -0.0114606,-0.030122 -0.00179921,-0.0078622 -0.00265354,-0.0187598 -0.00265354,-0.0326811l0 -0.13035c0,-0.0139252 -0.00274803,-0.0285118 -0.00833465,-0.0437598 -0.00549606,-0.0152598 -0.0130748,-0.0270945 -0.0227402,-0.0354331 -0.0136417,-0.0120315 -0.0307835,-0.0199843 -0.051248,-0.0237756 -0.0205551,-0.00379134 -0.0476496,-0.0056811 -0.0814646,-0.0056811 -0.0211299,0 -0.0407362,0.0016063 -0.0588307,0.00473228 -0.0180945,0.00312598 -0.0322992,0.0075748 -0.042626,0.0133583 -0.0144961,0.00795669 -0.0254843,0.0173386 -0.0331575,0.0282283 -0.00767323,0.0107992 -0.0135433,0.0256693 -0.017622,0.0446181zm0.157063 0.0853504c0.0169606,-0.00435827 0.0331575,-0.00928346 0.0486969,-0.0148701l0 0.018185c0,0.0142126 -0.00227559,0.0257677 -0.00682677,0.0346693 -0.00454331,0.00890945 -0.0122165,0.0163898 -0.0230157,0.0225472 -0.0108937,0.00615748 -0.0226378,0.0092874 -0.0352362,0.0092874 -0.0120354,0 -0.0211299,-0.00284646 -0.0273819,-0.00852756 -0.00615354,-0.00568504 -0.00927953,-0.0130709 -0.00927953,-0.0220709 0,-0.0078622 0.00312598,-0.014878 0.00947244,-0.0210354 0.00605906,-0.00596457 0.0206457,-0.0120276 0.0435709,-0.018185z" id="_398966728"/><path class="fil4" d="M2.56304 3.35697c-0.0112756,0.0140157 -0.0168622,0.0307835 -0.0168622,0.0502047 0,0.0178071 0.00520472,0.033626 0.015626,0.0475551 0.0105118,0.0138268 0.0233071,0.0237756 0.0385551,0.0295512 0.0153504,0.00587795 0.0425394,0.0122205 0.081752,0.0190433 0.0262402,0.00464173 0.0424409,0.00852756 0.0485039,0.0116535 0.00852756,0.00444882 0.0127874,0.0107992 0.0127874,0.0189449 0,0.00719685 -0.00322047,0.0132559 -0.00975591,0.0179961 -0.00833465,0.00653543 -0.0200827,0.00975591 -0.0352402,0.00975591 -0.0139213,0 -0.0250079,-0.00283858 -0.0333425,-0.00852362 -0.00834252,-0.0056811 -0.0147795,-0.0151535 -0.0194213,-0.0284213l-0.111969 0.0102323c0.00644094,0.0283268 0.021122,0.0502087 0.0439567,0.0655551 0.0228228,0.015437 0.061189,0.0231142 0.114992,0.0231142 0.0380866,0 0.0682126,-0.00473622 0.0902835,-0.0143031 0.0220709,-0.00956693 0.0382717,-0.0223622 0.0485,-0.0384646 0.0103268,-0.0160984 0.0154449,-0.0326772 0.0154449,-0.0497283 0,-0.0168661 -0.00483465,-0.0323071 -0.0145906,-0.0464213 -0.00966142,-0.0141142 -0.023685,-0.0249173 -0.0419646,-0.0324921 -0.018378,-0.00757874 -0.0462283,-0.0135472 -0.0838386,-0.0178071 -0.0247244,-0.00293701 -0.0408268,-0.00625591 -0.048122,-0.0100433 -0.00729528,-0.00369291 -0.0109882,-0.00909449 -0.0109882,-0.0163858 0,-0.00644094 0.00293701,-0.011937 0.00871654,-0.0164882 0.00577559,-0.00454331 0.015063,-0.00681496 0.027752,-0.00681496 0.0125984,0 0.0233031,0.00292913 0.0321142,0.00880709 0.00644488,0.00444882 0.0110827,0.0113661 0.0138307,0.020748l0.106854 -0.0102323c-0.00738583,-0.0193228 -0.0166693,-0.0345787 -0.0278504,-0.0459449 -0.0111732,-0.0112756 -0.0251024,-0.0196063 -0.0418701,-0.0250118 -0.0166693,-0.0053937 -0.042622,-0.00804331 -0.0776772,-0.00804331 -0.033252,0 -0.0597756,0.0035 -0.0795709,0.0104173 -0.0197992,0.00691339 -0.0353386,0.0174291 -0.0466063,0.0315472z" id="_398966152"/></g></g><rect class="fil5" height="6.82666" width="6.82666"/></svg>